<?xml version="1.0" encoding="utf-8"?>
<!-- Generator: Adobe Illustrator 20.0.0, SVG Export Plug-In . SVG Version: 6.00 Build 0)  -->
<svg version="1.1" id="Layer_1" xmlns="http://www.w3.org/2000/svg" xmlns:xlink="http://www.w3.org/1999/xlink" x="0px" y="0px"
	 viewBox="0 0 246 247.3" style="enable-background:new 0 0 246 247.3;" xml:space="preserve">
<style type="text/css">
	.st0{fill:#FFFFFF;}
	.st1{fill:#333E48;}
</style>
<g>
	<path class="st0" d="M123,0C55.1,0,0,55.1,0,123c0,30.6,11.2,58.6,29.7,80.2c-5.6,16-15.8,29.8-29.2,39.7c8.5,2.9,17.6,4.5,27,4.5
		c16.2,0,31.3-4.6,44.1-12.6C87.2,242,104.6,246,123,246c67.9,0,123-55.1,123-123C246,55.1,190.9,0,123,0L123,0z M123,0"/>
	<path class="st1" d="M138.2,125.7"/>
	<path class="st1" d="M197.4,125.7"/>
</g>
</svg>
